<svg width="128" height="128" viewBox="0 0 128 128" fill="none" xmlns="http://www.w3.org/2000/svg">
<g filter="url(#filter0_d_2626_726)">
<rect x="20" y="12" width="80" height="80" rx="40" fill="white"/>
<path d="M71.0448 44.6612V39.5703C71.7185 39.2555 72.289 38.7558 72.6897 38.1294C73.0904 37.5029 73.3049 36.7754 73.3082 36.0317V35.9127C73.3054 34.8734 72.8914 33.8775 72.1566 33.1426C71.4218 32.4076 70.426 31.9935 69.3869 31.9907H69.2679C68.2287 31.9935 67.233 32.4076 66.4982 33.1426C65.7634 33.8775 65.3493 34.8734 65.3466 35.9127V36.0317C65.3499 36.7754 65.5644 37.5029 65.9651 38.1294C66.3658 38.7558 66.9363 39.2555 67.61 39.5703V44.6717C65.673 44.968 63.8486 45.7708 62.3216 46.999L48.3233 36.0952C48.5897 35.0974 48.5022 34.0381 48.0757 33.0975C47.6492 32.157 46.91 31.3933 45.9839 30.9365C45.0578 30.4797 44.002 30.3579 42.9963 30.592C41.9906 30.8261 41.097 31.4015 40.4677 32.2203C39.8384 33.0391 39.5122 34.0507 39.5446 35.083C39.5771 36.1152 39.9662 37.1044 40.6457 37.882C41.3252 38.6596 42.2532 39.1777 43.2717 39.3481C44.2901 39.5185 45.3361 39.3307 46.2317 38.8165L59.9947 49.5326C58.7551 51.4031 58.1083 53.6041 58.139 55.848C58.1696 58.092 58.8763 60.2745 60.1666 62.1104L55.9782 66.2995C55.642 66.1924 55.2918 66.1354 54.939 66.1303C54.2199 66.1303 53.517 66.3435 52.9191 66.7431C52.3212 67.1427 51.8552 67.7106 51.58 68.375C51.3048 69.0395 51.2328 69.7707 51.3731 70.476C51.5134 71.1814 51.8597 71.8294 52.3681 72.3379C52.8766 72.8465 53.5244 73.1928 54.2297 73.3331C54.935 73.4734 55.666 73.4014 56.3304 73.1262C56.9947 72.851 57.5625 72.3849 57.962 71.7869C58.3615 71.1889 58.5748 70.4858 58.5748 69.7666C58.5698 69.4137 58.5128 69.0635 58.4056 68.7273L62.549 64.5831C63.9015 65.6164 65.4723 66.327 67.1412 66.6605C68.8102 66.9941 70.5333 66.9418 72.179 66.5078C73.8248 66.0737 75.3495 65.2693 76.637 64.156C77.9245 63.0426 78.9406 61.6498 79.6078 60.0838C80.275 58.5178 80.5757 56.82 80.4868 55.1201C80.3979 53.4202 79.9219 51.763 79.095 50.2752C78.2682 48.7873 77.1123 47.5081 75.7158 46.5351C74.3192 45.5621 72.7189 44.9212 71.0369 44.6612H71.0448ZM69.3208 61.4334C68.1874 61.4308 67.0803 61.0922 66.1392 60.4605C65.1982 59.8288 64.4655 58.9323 64.0337 57.8842C63.6019 56.8362 63.4905 55.6836 63.7134 54.5722C63.9362 53.4608 64.4835 52.4404 65.286 51.64C66.0885 50.8396 67.1103 50.295 68.2221 50.0752C69.3339 49.8553 70.486 49.97 71.5326 50.4048C72.5793 50.8395 73.4737 51.5748 74.1027 52.5178C74.7317 53.4607 75.0671 54.5689 75.0666 55.7025C75.0666 57.2231 74.4626 58.6815 73.3876 59.7567C72.3125 60.832 70.8544 61.436 69.334 61.436" fill="#FF7A59"/>
</g>
<defs>
<filter id="filter0_d_2626_726" x="0" y="0" width="128" height="128" filterUnits="userSpaceOnUse" color-interpolation-filters="sRGB">
<feFlood flood-opacity="0" result="BackgroundImageFix"/>
<feColorMatrix in="SourceAlpha" type="matrix" values="0 0 0 0 0 0 0 0 0 0 0 0 0 0 0 0 0 0 127 0" result="hardAlpha"/>
<feOffset dx="4" dy="12"/>
<feGaussianBlur stdDeviation="12"/>
<feColorMatrix type="matrix" values="0 0 0 0 0.109804 0 0 0 0 0.172549 0 0 0 0 0.25098 0 0 0 0.08 0"/>
<feBlend mode="normal" in2="BackgroundImageFix" result="effect1_dropShadow_2626_726"/>
<feBlend mode="normal" in="SourceGraphic" in2="effect1_dropShadow_2626_726" result="shape"/>
</filter>
</defs>
</svg>
