<svg width="128" height="128" viewBox="0 0 128 128" fill="none" xmlns="http://www.w3.org/2000/svg">
<g filter="url(#filter0_d_2626_729)">
<rect x="20" y="12" width="80" height="80" rx="40" fill="white"/>
<path d="M51.9186 58.442C51.9407 58.4687 51.9542 58.5015 51.9573 58.5361C51.9604 58.5706 51.9529 58.6053 51.9359 58.6356C51.8532 58.7698 51.7347 58.8782 51.5937 58.9486C51.4527 59.0191 51.2948 59.0487 51.1378 59.0342C50.8581 59.0041 50.6003 58.8689 50.4164 58.656C50.2326 58.443 50.1364 58.1682 50.1474 57.8871C50.1426 57.504 50.2126 57.1236 50.3533 56.7673C50.4421 56.544 50.4514 56.2969 50.3795 56.0676C50.3077 55.8383 50.1591 55.6407 49.9587 55.508C49.8401 55.4295 49.707 55.3756 49.5673 55.3495C49.4275 55.3233 49.2839 55.3254 49.145 55.3556C49.0089 55.3843 48.8799 55.4398 48.7655 55.5191C48.6512 55.5983 48.5539 55.6996 48.4793 55.817C48.3737 55.9977 48.2917 56.1911 48.2351 56.3925C48.2242 56.428 48.2154 56.4558 48.2087 56.4738C48.116 56.7239 47.9682 56.7968 47.868 56.7834C47.8207 56.7769 47.7555 56.7452 47.7138 56.6307C47.6614 56.2998 47.6852 55.9613 47.7833 55.641C47.8814 55.3207 48.0513 55.0269 48.28 54.7821C48.4721 54.5758 48.7105 54.4183 48.9755 54.3224C49.2406 54.2266 49.5246 54.1952 49.8042 54.2309C50.1004 54.2716 50.3818 54.3851 50.6234 54.5613C50.8649 54.7375 51.059 54.9708 51.1882 55.2404C51.3191 55.5717 51.3719 55.9288 51.3426 56.2838C51.3132 56.6388 51.2025 56.9823 51.019 57.2877C50.9958 57.3396 50.9745 57.3872 50.9566 57.4303C50.8906 57.5496 50.8544 57.683 50.851 57.8193C50.8476 57.9555 50.8771 58.0906 50.9371 58.213C50.9877 58.286 51.0557 58.3453 51.1349 58.3856C51.2141 58.4258 51.3021 58.4458 51.3909 58.4438C51.4747 58.4426 51.558 58.4308 51.6388 58.4087C51.7439 58.3841 51.8526 58.3588 51.9186 58.4419L51.9186 58.442ZM77.8423 59.0892C77.7835 60.2963 77.5285 61.4858 77.0872 62.6109C74.8857 67.9024 69.6319 70.8482 63.3731 70.6617C57.5385 70.4879 52.5622 67.3996 50.3842 62.3654C49.0093 62.327 47.694 61.7957 46.678 60.8686C45.6284 59.9738 44.9541 58.7168 44.7891 57.3475C44.6826 56.4055 44.7991 55.4516 45.1292 54.5629L43.906 53.5236C38.3094 48.7836 55.8142 29.2673 61.413 34.1656C61.4413 34.1902 63.3175 36.0369 63.3223 36.0415C63.3297 36.0377 64.3575 35.6005 64.3627 35.5984C69.2733 33.5587 73.258 34.5435 73.263 37.7979C73.2656 39.4904 72.1904 41.4631 70.4682 43.2537C71.1565 43.9543 71.6438 44.827 71.8792 45.7805C72.0691 46.4457 72.1717 47.1327 72.1845 47.8244C72.2144 48.5141 72.2475 50.1209 72.2508 50.1495C72.2945 50.1627 72.7917 50.2996 72.9424 50.342C73.9443 50.5618 74.8766 51.025 75.6569 51.6907C76.0689 52.0934 76.3387 52.6192 76.4256 53.1888C76.5318 53.9277 76.3474 54.6791 75.9111 55.2849C76.0246 55.5438 76.1231 55.809 76.2061 56.0792C76.3511 56.5452 76.4565 56.932 76.4728 56.9894C77.0055 56.9894 77.8423 57.6046 77.8423 59.0892L77.8423 59.0892ZM53.1093 56.1855C52.7287 53.7146 51.0623 52.8438 49.9315 52.7817C49.6477 52.7666 49.3631 52.7869 49.0843 52.8421C47.0661 53.2505 45.9263 54.9725 46.1506 57.2101C46.314 58.2138 46.811 59.133 47.5613 59.8193C48.3117 60.5056 49.2715 60.9189 50.2857 60.9923C50.4798 60.9975 50.674 60.9838 50.8654 60.9515C52.9109 60.6016 53.4465 58.3738 53.1093 56.1855ZM56.5588 40.5003C58.2683 39.0948 60.092 37.8342 62.0108 36.7315C62.0108 36.7315 60.4872 34.9595 60.0271 34.8289C57.1972 34.0616 51.084 38.2904 47.1809 43.8773C45.6016 46.1379 43.3408 50.1411 44.4217 52.1999C44.8057 52.6621 45.2389 53.081 45.7136 53.4493C46.4362 52.4307 47.5267 51.7329 48.7544 51.5036C50.2904 47.1858 52.9916 43.3774 56.5588 40.5003ZM62.7093 60.0536C62.7843 60.382 62.9466 60.684 63.1791 60.9278C63.4116 61.1715 63.7056 61.348 64.03 61.4385C64.3675 61.5642 64.7158 61.6591 65.0705 61.7219C69.5469 62.4942 73.7318 59.927 74.6741 59.2804C74.7448 59.2318 74.7915 59.2791 74.7348 59.3648C74.7064 59.4105 74.6756 59.4545 74.6425 59.4968C73.4893 60.9888 70.3892 62.7166 66.3557 62.716C64.5966 62.7157 62.8384 62.094 62.1928 61.1389C61.1912 59.6568 62.1432 57.4935 63.8121 57.7189C63.814 57.7192 64.3831 57.7839 64.5431 57.8017C67.1373 58.0512 69.7521 57.6315 72.1379 56.5827C74.4148 55.5225 75.275 54.3558 75.146 53.4113C75.1028 53.118 74.9649 52.8468 74.7534 52.6391C74.1307 52.1266 73.3914 51.7753 72.6008 51.6164C72.2391 51.5146 71.9937 51.4496 71.7294 51.3622C71.2594 51.2069 71.0271 51.082 70.9744 50.1955C70.9515 49.8078 70.8841 48.4572 70.8597 47.899C70.8167 46.921 70.6996 45.5843 69.8725 45.0323C69.662 44.8938 69.4175 44.8154 69.1657 44.8057C69.0244 44.7971 68.8828 44.811 68.7459 44.8469C68.327 44.9439 67.9452 45.1604 67.6469 45.4701C67.2604 45.8194 66.8059 46.0852 66.3119 46.2506C65.8179 46.416 65.295 46.4775 64.776 46.4313C64.1974 46.4071 63.5842 46.3167 62.8813 46.2749C62.7445 46.2668 62.6072 46.2583 62.4702 46.2513C61.5651 46.275 60.6986 46.623 60.0286 47.2319C59.3585 47.8407 58.9294 48.67 58.8193 49.5686C58.4168 52.3461 60.4221 53.7813 61.001 54.6235C61.0905 54.7308 61.1459 54.8622 61.1604 55.0012C61.1451 55.1552 61.0713 55.2976 60.9543 55.3989V55.3998C60.1535 56.2919 59.5907 57.3716 59.3179 58.539C59.0452 59.7063 59.0713 60.9236 59.3938 62.0782C59.4703 62.3555 59.5684 62.6263 59.6871 62.8883C61.1504 66.318 65.6894 67.915 70.124 66.4623C70.7046 66.2722 71.2682 66.0335 71.8087 65.7487C72.7798 65.2673 73.6543 64.6118 74.3887 63.8147C75.5308 62.6669 76.2823 61.1885 76.5366 59.5894C76.6701 58.7053 76.4747 58.3634 76.2082 58.1989C76.0199 58.0939 75.8021 58.054 75.5888 58.0853C75.4758 57.3911 75.2777 56.7135 74.9989 56.0677C73.7324 57.0234 72.3007 57.7376 70.7755 58.1747C68.9403 58.6932 67.0313 58.9002 65.1277 58.7872C63.903 58.688 63.0928 58.3294 62.7881 59.3227C64.6406 59.9422 66.6074 60.1429 68.5468 59.9103C68.5605 59.9089 68.5743 59.9102 68.5874 59.9141C68.6005 59.9181 68.6128 59.9246 68.6234 59.9333C68.634 59.942 68.6428 59.9526 68.6493 59.9647C68.6557 59.9768 68.6598 59.9901 68.6611 60.0037C68.6631 60.0267 68.658 60.0497 68.6464 60.0696C68.6349 60.0895 68.6174 60.1053 68.5964 60.1149C68.5964 60.1149 66.3218 61.1742 62.7093 60.0536ZM56.0475 43.9473C57.552 42.8911 59.2484 42.139 61.0414 41.7334C63.064 41.2647 65.1664 41.259 67.1915 41.7168C67.2624 41.7331 67.3076 41.6099 67.2442 41.5743C66.1933 41.0272 65.0332 40.7222 63.8491 40.6817C63.8377 40.6815 63.8266 40.6782 63.817 40.6721C63.8074 40.6659 63.7996 40.6573 63.7946 40.647C63.7896 40.6368 63.7875 40.6254 63.7885 40.614C63.7896 40.6026 63.7938 40.5918 63.8006 40.5827C63.9845 40.3412 64.1994 40.125 64.4396 39.9395C64.4504 39.9311 64.4582 39.9195 64.4619 39.9064C64.4656 39.8932 64.465 39.8793 64.4602 39.8665C64.4554 39.8537 64.4467 39.8428 64.4352 39.8353C64.4238 39.8278 64.4103 39.8242 64.3967 39.8249C62.9466 39.9683 61.5531 40.4618 60.3361 41.2629C60.3257 41.27 60.3134 41.2737 60.3008 41.2737C60.2883 41.2737 60.276 41.2699 60.2656 41.2628C60.2553 41.2557 60.2473 41.2456 60.2427 41.2339C60.2381 41.2222 60.2372 41.2094 60.24 41.1972C60.338 40.8298 60.4824 40.4763 60.6696 40.1454C60.6758 40.1341 60.6782 40.121 60.6765 40.1083C60.6748 40.0955 60.669 40.0836 60.66 40.0743C60.6509 40.0651 60.6392 40.0589 60.6265 40.0569C60.6137 40.0548 60.6007 40.0568 60.5892 40.0627C58.829 41.0343 57.2613 42.3194 55.9633 43.8547C55.9531 43.8663 55.9476 43.8813 55.9477 43.8968C55.9479 43.9122 55.9537 43.9271 55.9641 43.9385C55.9745 43.95 55.9888 43.9572 56.0041 43.9588C56.0195 43.9604 56.0349 43.9564 56.0475 43.9473ZM67.8356 53.3753C67.9581 53.4529 68.1049 53.4826 68.2479 53.4589C68.391 53.4351 68.5203 53.3595 68.6111 53.2464C68.724 53.0279 68.5601 52.7315 68.2448 52.5843C68.1222 52.5067 67.9754 52.477 67.8324 52.5009C67.6893 52.5247 67.5601 52.6004 67.4693 52.7135C67.3562 52.9318 67.5203 53.2282 67.8356 53.3753ZM68.8027 49.8315C68.8783 50.225 69.0415 50.5964 69.2802 50.9182C69.5268 50.8879 69.7761 50.8879 70.0227 50.9182C70.1669 50.4863 70.1795 50.0213 70.059 49.5822C69.8808 48.7721 69.6396 48.2818 69.1412 48.358C68.643 48.4344 68.6246 49.0213 68.8027 49.8315ZM69.8629 51.6925C69.7372 51.6565 69.6034 51.6607 69.4802 51.7046C69.3571 51.7485 69.2508 51.8299 69.1762 51.9373C69.1017 52.0448 69.0627 52.1729 69.0648 52.3036C69.0668 52.4344 69.1097 52.5612 69.1875 52.6663C69.2653 52.7713 69.3741 52.8494 69.4986 52.8895C69.623 52.9295 69.7569 52.9296 69.8814 52.8897C70.006 52.8497 70.1148 52.7718 70.1927 52.6668C70.2707 52.5618 70.3137 52.435 70.3159 52.3043C70.334 52.1636 70.2969 52.0213 70.2125 51.9073C70.128 51.7932 70.0028 51.7163 69.8629 51.6925Z" fill="black"/>
<path d="M61.589 51.6202C61.5095 51.609 61.4756 51.575 61.4656 51.5299C61.4347 51.3902 61.6497 51.1602 61.8763 50.9941C62.207 50.7524 62.5943 50.5997 63.001 50.5509C63.4077 50.5021 63.8202 50.5587 64.1987 50.7153C64.5524 50.8612 64.8565 51.106 65.0746 51.4203C65.1556 51.5525 65.1713 51.655 65.1189 51.7087C65.0373 51.7947 64.8292 51.6961 64.4905 51.5476C64.0835 51.3479 63.6338 51.251 63.1808 51.2655C62.6439 51.3538 62.1125 51.4722 61.589 51.6202ZM64.9654 52.3153C64.8191 52.1615 64.6368 52.0463 64.435 51.9801C64.2332 51.914 64.0181 51.8989 63.8091 51.9363C63.5008 51.9691 63.2087 52.0908 62.9683 52.2867C62.8563 52.3671 62.7794 52.4873 62.7532 52.6226C62.7526 52.6377 62.7553 52.6527 62.7612 52.6666C62.767 52.6805 62.7758 52.6929 62.787 52.703C62.8068 52.7211 62.8328 52.7309 62.8596 52.7306C62.9705 52.7143 63.0789 52.6843 63.1824 52.6411C63.6353 52.4704 64.1246 52.4196 64.6029 52.4936C64.8246 52.5185 64.9293 52.5324 64.978 52.4563C64.9904 52.4343 64.9959 52.409 64.9937 52.3839C64.9914 52.3587 64.9816 52.3348 64.9654 52.3153Z" fill="black"/>
</g>
<defs>
<filter id="filter0_d_2626_729" x="0" y="0" width="128" height="128" filterUnits="userSpaceOnUse" color-interpolation-filters="sRGB">
<feFlood flood-opacity="0" result="BackgroundImageFix"/>
<feColorMatrix in="SourceAlpha" type="matrix" values="0 0 0 0 0 0 0 0 0 0 0 0 0 0 0 0 0 0 127 0" result="hardAlpha"/>
<feOffset dx="4" dy="12"/>
<feGaussianBlur stdDeviation="12"/>
<feColorMatrix type="matrix" values="0 0 0 0 0.109804 0 0 0 0 0.172549 0 0 0 0 0.25098 0 0 0 0.08 0"/>
<feBlend mode="normal" in2="BackgroundImageFix" result="effect1_dropShadow_2626_729"/>
<feBlend mode="normal" in="SourceGraphic" in2="effect1_dropShadow_2626_729" result="shape"/>
</filter>
</defs>
</svg>
