<svg width="128" height="128" viewBox="0 0 128 128" fill="none" xmlns="http://www.w3.org/2000/svg">
<g filter="url(#filter0_d_2626_727)">
<rect x="20" y="12" width="80" height="80" rx="40" fill="white"/>
<g clip-path="url(#clip0_2626_727)">
<path d="M60 74C72.1503 74 82 64.1503 82 52C82 39.8497 72.1503 30 60 30C47.8497 30 38 39.8497 38 52C38 64.1503 47.8497 74 60 74Z" fill="#2CA01C"/>
<path d="M44.1111 52C44.1111 54.2691 45.0125 56.4452 46.617 58.0497C48.2215 59.6542 50.3976 60.5555 52.6667 60.5555H53.8889V57.3778H52.6667C51.2404 57.3778 49.8725 56.8112 48.864 55.8026C47.8555 54.7941 47.2889 53.4263 47.2889 52C47.2889 50.5737 47.8555 49.2058 48.864 48.1973C49.8725 47.1888 51.2404 46.6222 52.6667 46.6222H55.6V63.2444C55.6 63.6617 55.6822 64.075 55.8419 64.4605C56.0016 64.8461 56.2357 65.1964 56.5308 65.4915C56.8258 65.7865 57.1762 66.0206 57.5617 66.1803C57.9472 66.34 58.3605 66.4222 58.7778 66.4222V43.4444H52.6667C50.3976 43.4444 48.2215 44.3458 46.617 45.9503C45.0125 47.5548 44.1111 49.7309 44.1111 52ZM67.3333 43.4444H66.1111V46.6222H67.3333C68.7596 46.6222 70.1275 47.1888 71.136 48.1973C72.1445 49.2058 72.7111 50.5737 72.7111 52C72.7111 53.4263 72.1445 54.7941 71.136 55.8026C70.1275 56.8112 68.7596 57.3778 67.3333 57.3778H64.4V40.7555C64.4 39.9127 64.0652 39.1045 63.4693 38.5085C62.8733 37.9126 62.065 37.5778 61.2222 37.5778V60.5555H67.3333C68.4569 60.5555 69.5694 60.3342 70.6074 59.9043C71.6454 59.4743 72.5886 58.8441 73.383 58.0497C74.1775 57.2552 74.8077 56.3121 75.2376 55.274C75.6676 54.236 75.8889 53.1235 75.8889 52C75.8889 50.8764 75.6676 49.7639 75.2376 48.7259C74.8077 47.6879 74.1775 46.7447 73.383 45.9503C72.5886 45.1558 71.6454 44.5256 70.6074 44.0957C69.5694 43.6657 68.4569 43.4444 67.3333 43.4444Z" fill="white"/>
</g>
</g>
<defs>
<filter id="filter0_d_2626_727" x="0" y="0" width="128" height="128" filterUnits="userSpaceOnUse" color-interpolation-filters="sRGB">
<feFlood flood-opacity="0" result="BackgroundImageFix"/>
<feColorMatrix in="SourceAlpha" type="matrix" values="0 0 0 0 0 0 0 0 0 0 0 0 0 0 0 0 0 0 127 0" result="hardAlpha"/>
<feOffset dx="4" dy="12"/>
<feGaussianBlur stdDeviation="12"/>
<feColorMatrix type="matrix" values="0 0 0 0 0.109804 0 0 0 0 0.172549 0 0 0 0 0.25098 0 0 0 0.08 0"/>
<feBlend mode="normal" in2="BackgroundImageFix" result="effect1_dropShadow_2626_727"/>
<feBlend mode="normal" in="SourceGraphic" in2="effect1_dropShadow_2626_727" result="shape"/>
</filter>
<clipPath id="clip0_2626_727">
<rect width="44" height="44" fill="white" transform="translate(38 30)"/>
</clipPath>
</defs>
</svg>
