<svg width="128" height="128" viewBox="0 0 128 128" fill="none" xmlns="http://www.w3.org/2000/svg">
<g filter="url(#filter0_d_2626_730)">
<rect x="20" y="12" width="80" height="80" rx="40" fill="white"/>
<g clip-path="url(#clip0_2626_730)">
<path d="M54.6013 32.0987C52.402 32.0987 50.6193 33.8854 50.6193 36.0887C50.6188 36.6121 50.7214 37.1306 50.9212 37.6144C51.121 38.0982 51.4142 38.5379 51.784 38.9084C52.1537 39.2789 52.5929 39.5729 53.0763 39.7737C53.5597 39.9745 54.0779 40.0782 54.6013 40.0787H58.584V36.0887C58.5849 35.0315 58.1658 34.0172 57.4189 33.269C56.672 32.5207 55.6585 32.0998 54.6013 32.0987ZM54.6013 42.7387H43.982C41.7827 42.7387 40 44.5254 40 46.7294C40 48.9327 41.7827 50.7194 43.982 50.7194H54.602C56.8007 50.7194 58.584 48.9327 58.584 46.7294C58.584 44.5254 56.8007 42.7387 54.6013 42.7387Z" fill="#36C5F0"/>
<path d="M79.8228 46.7293C79.8228 44.5253 78.0394 42.7386 75.8401 42.7386C73.6408 42.7386 71.8581 44.5253 71.8581 46.7293V50.7193H75.8401C76.8973 50.7182 77.9108 50.2973 78.6577 49.549C79.4046 48.8008 79.8237 47.7865 79.8228 46.7293ZM69.2034 46.7293V36.0886C69.2043 35.0314 68.7852 34.0171 68.0384 33.2689C67.2915 32.5206 66.278 32.0997 65.2208 32.0986C63.0214 32.0986 61.2388 33.8853 61.2388 36.0886V46.7286C61.2388 48.9333 63.0214 50.72 65.2208 50.72C66.278 50.7189 67.2915 50.298 68.0384 49.5497C68.7852 48.8015 69.2043 47.7872 69.2034 46.73" fill="#2EB67D"/>
<path d="M65.2208 72.0001C66.278 71.999 67.2915 71.578 68.0384 70.8298C68.7852 70.0815 69.2043 69.0673 69.2034 68.0101C69.2043 66.9528 68.7852 65.9386 68.0384 65.1903C67.2915 64.4421 66.278 64.0211 65.2208 64.0201H61.2388V68.0101C61.2388 70.2134 63.0214 72.0001 65.2208 72.0001ZM65.2208 61.3601H75.8408C78.0394 61.3601 79.8228 59.5734 79.8228 57.3694C79.8237 56.3122 79.4046 55.2979 78.6577 54.5497C77.9108 53.8014 76.8973 53.3805 75.8401 53.3794H65.2208C63.0214 53.3794 61.2388 55.1661 61.2388 57.3694C61.2382 57.8928 61.3408 58.4113 61.5407 58.8951C61.7405 59.3789 62.0337 59.8186 62.4034 60.1891C62.7732 60.5596 63.2123 60.8536 63.6957 61.0544C64.1791 61.2552 64.6973 61.3589 65.2208 61.3594" fill="#ECB22E"/>
<path d="M40 57.3693C39.9995 57.8928 40.1021 58.4112 40.3019 58.895C40.5017 59.3788 40.7949 59.8185 41.1646 60.189C41.5344 60.5595 41.9735 60.8536 42.4569 61.0544C42.9403 61.2552 43.4586 61.3588 43.982 61.3593C45.0392 61.3583 46.0527 60.9373 46.7996 60.1891C47.5465 59.4408 47.9656 58.4265 47.9647 57.3693V53.3793H43.982C41.7827 53.3793 40 55.166 40 57.3693ZM50.6193 57.3693V68.0093C50.6193 70.2133 52.402 72 54.6013 72C55.6585 71.9989 56.6721 71.578 57.4189 70.8297C58.1658 70.0815 58.5849 69.0672 58.584 68.01V57.3693C58.5845 56.8458 58.4819 56.3273 58.2821 55.8435C58.0822 55.3596 57.789 54.9199 57.4191 54.5494C57.0493 54.1789 56.6101 53.8849 56.1266 53.6841C55.6431 53.4833 55.1248 53.3798 54.6013 53.3793C52.402 53.3793 50.6193 55.166 50.6193 57.3693Z" fill="#E01E5A"/>
</g>
</g>
<defs>
<filter id="filter0_d_2626_730" x="0" y="0" width="128" height="128" filterUnits="userSpaceOnUse" color-interpolation-filters="sRGB">
<feFlood flood-opacity="0" result="BackgroundImageFix"/>
<feColorMatrix in="SourceAlpha" type="matrix" values="0 0 0 0 0 0 0 0 0 0 0 0 0 0 0 0 0 0 127 0" result="hardAlpha"/>
<feOffset dx="4" dy="12"/>
<feGaussianBlur stdDeviation="12"/>
<feColorMatrix type="matrix" values="0 0 0 0 0.109804 0 0 0 0 0.172549 0 0 0 0 0.25098 0 0 0 0.08 0"/>
<feBlend mode="normal" in2="BackgroundImageFix" result="effect1_dropShadow_2626_730"/>
<feBlend mode="normal" in="SourceGraphic" in2="effect1_dropShadow_2626_730" result="shape"/>
</filter>
<clipPath id="clip0_2626_730">
<rect width="40" height="40" fill="white" transform="translate(40 32)"/>
</clipPath>
</defs>
</svg>
