<svg width="128" height="128" viewBox="0 0 128 128" fill="none" xmlns="http://www.w3.org/2000/svg">
<g filter="url(#filter0_d_2626_725)">
<rect x="20" y="12" width="80" height="80" rx="40" fill="white"/>
<g clip-path="url(#clip0_2626_725)">
<path d="M64.9998 52.0088C65.0005 53.451 64.7404 54.8816 64.2319 56.2313C62.8817 56.7397 61.4509 57.0002 60.0081 57.0005H59.9912C58.5056 56.9986 57.0822 56.727 55.7687 56.2319C55.26 54.882 54.9995 53.4513 55 52.0088V51.9912C54.9993 50.5492 55.2592 49.119 55.7672 47.7694C57.1173 47.26 58.5484 46.9994 59.9914 47H60.0083C61.4511 46.9993 62.8821 47.2599 64.232 47.7692C64.7406 49.1187 65.0007 50.549 65 51.9911V52.0086L64.9998 52.0088ZM79.7222 48.6667H68.0478L76.3023 40.4116C75.6544 39.5014 74.9317 38.647 74.1417 37.857V37.8564C73.3517 37.0673 72.4974 36.3453 71.5878 35.6977L63.3327 43.9528V32.2784C62.2347 32.0937 61.1234 32.0006 60.01 32H59.9894C58.8569 32.0006 57.7477 32.0969 56.6667 32.2784V43.9528L48.4116 35.6977C47.5018 36.3451 46.6479 37.0677 45.8589 37.8578L45.8545 37.8609C45.0659 38.6499 44.3442 39.503 43.6969 40.4116L51.9527 48.6667H40.2784C40.2784 48.6667 40 50.8594 40 51.9931V52.0069C40 53.1406 40.0961 54.2517 40.2784 55.3333H51.9528L43.697 63.5884C44.9957 65.4109 46.5891 67.0043 48.4116 68.303L56.6667 60.0472V71.7222C57.7634 71.906 58.8735 71.9989 59.9855 72H60.0138C61.1258 71.999 62.2358 71.9061 63.3325 71.7222V60.0472L71.5884 68.303C72.4979 67.6551 73.3519 66.9329 74.1417 66.1436L74.1436 66.1417C74.9325 65.3518 75.6546 64.4977 76.3023 63.5884L68.0466 55.3333H79.7222C79.9039 54.2536 79.9987 53.1458 80 52.0145V51.9855C79.9987 50.8542 79.9039 49.7464 79.7222 48.6667Z" fill="#FF4A00"/>
</g>
</g>
<defs>
<filter id="filter0_d_2626_725" x="0" y="0" width="128" height="128" filterUnits="userSpaceOnUse" color-interpolation-filters="sRGB">
<feFlood flood-opacity="0" result="BackgroundImageFix"/>
<feColorMatrix in="SourceAlpha" type="matrix" values="0 0 0 0 0 0 0 0 0 0 0 0 0 0 0 0 0 0 127 0" result="hardAlpha"/>
<feOffset dx="4" dy="12"/>
<feGaussianBlur stdDeviation="12"/>
<feColorMatrix type="matrix" values="0 0 0 0 0.109804 0 0 0 0 0.172549 0 0 0 0 0.25098 0 0 0 0.08 0"/>
<feBlend mode="normal" in2="BackgroundImageFix" result="effect1_dropShadow_2626_725"/>
<feBlend mode="normal" in="SourceGraphic" in2="effect1_dropShadow_2626_725" result="shape"/>
</filter>
<clipPath id="clip0_2626_725">
<rect width="40" height="40" fill="white" transform="translate(40 32)"/>
</clipPath>
</defs>
</svg>
